<?xml version="1.0" encoding="UTF-8" standalone="no"?><!DOCTYPE svg PUBLIC "-//W3C//DTD SVG 1.1//EN" "http://www.w3.org/Graphics/SVG/1.1/DTD/svg11.dtd"><svg width="100%" height="100%" viewBox="0 0 4267 4267" version="1.1" xmlns="http://www.w3.org/2000/svg" xmlns:xlink="http://www.w3.org/1999/xlink" xml:space="preserve" xmlns:serif="http://www.serif.com/" style="fill-rule:evenodd;clip-rule:evenodd;stroke-linejoin:round;stroke-miterlimit:2;"><path d="M1582.87,1014.87c46.655,56.239 93.32,112.47 139.962,168.72c33.187,40.022 66.427,80.002 99.494,120.124c38.341,46.523 76.634,93.088 114.737,139.806c41.044,50.322 81.147,101.431 122.953,151.109c40.02,47.558 81.986,93.473 122.497,140.625c14.637,17.037 27.332,35.726 41.259,53.388c41.002,51.995 81.73,104.217 123.433,155.645c31.023,38.257 63.682,75.184 95.098,113.13c34.843,42.085 68.645,85.037 103.738,126.908c37.693,44.974 76.935,88.655 114.414,133.802c27.84,33.538 53.946,68.515 80.787,105.819c2.812,2.333 8.089,1.857 8.142,1.039c0.725,-11.057 0.88,-22.161 0.877,-33.253c-0.057,-203.891 -0.155,-407.783 1.715,-611.903c56.663,-0.161 111.365,0.05 166.067,-0.058c113.511,-0.222 227.021,-0.613 340.532,-0.935c-0,-0 -0.197,0.187 -0.514,1.411c-0.436,3.062 -0.555,4.901 -1.418,7.52c-0.236,3.376 0.272,5.971 0.884,10.483c0.138,31.343 0.173,60.768 0.207,90.192c0,0 0.681,0.557 -0.571,2.531c-1.884,17.172 -3.063,32.37 -3.067,47.569c-0.115,434.894 -0.097,869.787 -0.205,1304.68c-0.003,11.744 -1.166,23.488 -3.552,35.34c-132.517,0.187 -263.269,0.303 -394.021,0.251c-7.537,-0.002 -15.073,-1.375 -22.61,-2.111c-38.546,-46.78 -77.115,-93.542 -115.632,-140.347c-37.344,-45.382 -74.972,-90.535 -111.831,-136.308c-26.079,-32.385 -50.758,-65.893 -76.656,-98.428c-28.442,-35.731 -57.736,-70.782 -86.344,-106.384c-29.866,-37.168 -59.124,-74.826 -89.078,-111.923c-28.344,-35.102 -57.353,-69.665 -85.872,-104.627c-31.06,-38.077 -61.65,-76.541 -92.908,-114.454c-21.742,-26.37 -44.828,-51.642 -66.317,-78.21c-36.882,-45.597 -72.522,-92.202 -109.573,-137.659c-25.966,-31.859 -53.576,-62.374 -80.155,-93.741c-38.441,-45.363 -76.662,-90.913 -114.886,-136.46c-34.263,-40.828 -68.42,-81.745 -102.59,-122.651c-13.977,-16.732 -27.865,-33.538 -43.176,-52.909c-4.014,5.011 -8.936,12.618 -8.943,20.229c-0.178,191.097 0.27,382.194 0.047,573.29c-0.01,8.642 -5.281,17.278 -10.054,25.817c-108.625,-0.222 -215.298,-0.479 -321.97,-0.414c-56.075,0.034 -112.15,0.631 -168.225,0.973c0,0 0.255,0.119 0.67,-1.689c0.29,-169.675 0.229,-337.542 -0.132,-505.409c-0.02,-9.435 -2.511,-18.865 -3.852,-28.297c-0,0 -0.567,-0.504 0.065,-2.78c0.69,-9.898 0.794,-17.519 0.801,-25.141c0.171,-187.074 0.332,-374.148 1.295,-562.71c0.315,-16.075 -0.169,-30.662 -1.029,-46.509c-0.633,-2.098 -0.89,-2.936 -1.147,-3.774c-0,0 -0.415,-0.324 0.913,-1.783c0.517,-8.998 -0.294,-16.536 -1.105,-24.073c0,-0 -0.137,0.097 0.581,-1.995c0.296,-3.463 -0.126,-4.835 -0.547,-6.207c-0,0 -0.174,-0.06 1.166,-1.463c1.965,-9.659 3.127,-17.914 3.128,-26.17c0.011,-62.444 -0.218,-124.887 -0.346,-187.331c-0.06,-28.975 -0.034,-28.88 28.016,-29.01c40.909,-0.189 81.817,-0.53 124.617,-0.706c93.583,0.303 185.273,0.506 276.964,0.708c-0,0 -0.284,0.019 -0.64,1.351c1.065,2.675 2.486,4.018 3.907,5.361Z" style="fill:#018dc6;fill-rule:nonzero;"/><path d="M1642.6,3253.76c-34.831,-46.138 -69.986,-92.036 -104.418,-138.471c-50.213,-67.718 -100.033,-135.729 -149.784,-203.788c-41.59,-56.896 -82.84,-114.039 -124.219,-171.044c122.888,-80.633 246.433,-161.698 372.569,-243.447c3.336,-2.356 4.084,-4.028 4.831,-5.7c-0,-0 -0.006,0.284 0.949,0.164c3.169,4.359 7.315,8.836 7.321,13.318c0.292,243.171 0.294,486.342 -0.096,729.513c-0.011,6.489 -4.664,12.97 -7.153,19.455Z" style="fill:#038dc7;fill-rule:nonzero;"/><path d="M2765.7,1009.87c18.428,26.029 36.229,52.531 55.417,77.987c38.119,50.569 77.384,100.274 115.461,150.874c36.814,48.921 72.449,98.728 109.144,147.739c22.468,30.009 45.497,59.627 69.147,88.71c15.831,19.469 14.653,26.174 -5.701,39.166c-56.527,36.078 -112.385,73.202 -168.643,109.705c-64.272,41.701 -128.69,83.178 -195.531,126.359c-1.192,-6.967 -2.158,-12.608 -1.734,-20.902c3.052,-13.486 5.758,-24.282 6.161,-35.162c0.874,-23.565 0.719,-47.174 0.723,-70.765c0.036,-201.927 -0.079,-403.855 0.367,-605.781c0.017,-7.417 5.356,-14.822 8.215,-22.233c-0,0 -0.269,0.072 -0.486,1.401c1.43,1.822 3.077,2.315 4.723,2.807c0,0 -0.371,0.158 -1.157,1.24c0.774,3.674 2.334,6.264 3.894,8.855Z" style="fill:#048dc5;fill-rule:nonzero;"/><path d="M3252.1,3278.46c0.622,-11.745 1.785,-23.489 1.788,-35.233c0.108,-434.894 0.09,-869.787 0.205,-1304.68c0.004,-15.199 1.183,-30.397 2.79,-47.228c1.153,31.912 0.946,65.463 1.604,98.998c0.877,44.696 2.722,89.372 3.58,134.068c0.548,28.495 0.019,57.01 0.051,85.516c0.039,34.788 0.704,69.586 0.078,104.36c-0.52,28.898 -3.307,57.758 -3.686,86.653c-0.64,48.82 -0.168,97.654 -0.167,146.483c0.003,135.07 0.005,270.141 0.006,405.211c0,40.362 -0.477,80.73 0.123,121.082c0.648,43.512 2.558,87.003 3.418,130.514c0.482,24.365 -0.048,48.75 -3.265,73.845c-4.271,0.617 -5.398,0.514 -6.525,0.412Z" style="fill:#64a9c8;fill-rule:nonzero;"/><path d="M1642.73,3255.37c2.366,-8.095 7.019,-14.576 7.03,-21.065c0.39,-243.171 0.388,-486.342 0.096,-729.513c-0.006,-4.482 -4.152,-8.959 -7.462,-13.336c-0.442,-6.709 0.213,-13.522 0.209,-23.206c-0.742,-3.987 -0.825,-5.101 -0.908,-6.214c2.82,-8.639 8.091,-17.275 8.101,-25.917c0.223,-191.096 -0.225,-382.193 -0.047,-573.29c0.007,-7.611 4.929,-15.218 8.332,-21.427c-0.724,6.623 -3.519,11.844 -3.526,17.068c-0.285,202.713 -0.336,405.426 -0.376,608.139c-0.05,259.837 -0.021,519.674 -0.482,779.51c-0.008,4.3 7.607,22.45 -10.967,9.251Z" style="fill:#63b5d6;fill-rule:nonzero;"/><path d="M2758.11,994.04c-2.24,8.933 -7.579,16.338 -7.596,23.755c-0.446,201.926 -0.331,403.854 -0.367,605.781c-0.004,23.591 0.151,47.2 -0.723,70.765c-0.403,10.88 -3.109,21.676 -5.746,33.644c0.11,-244.419 1.194,-489.973 2.327,-735.527c0.005,-1.214 0.707,-2.424 1.622,-5.372c3.539,1.949 6.702,3.69 10.483,6.954Z" style="fill:#97daf6;fill-rule:nonzero;"/><path d="M2750.01,1780.06c0.09,203.891 0.188,407.783 0.245,611.674c0.003,11.092 -0.152,22.196 -0.877,33.253c-0.053,0.818 -5.33,1.294 -8.28,0.366c1.504,-7.969 4.5,-14.373 4.511,-20.782c0.345,-207.383 0.403,-414.767 1.568,-623.757c1.064,-1.605 2.833,-0.754 2.833,-0.754Z" style="fill:#97daf6;fill-rule:nonzero;"/><path d="M1147.59,1337.96c-0.163,187.074 -0.324,374.148 -0.495,561.222c-0.007,7.622 -0.111,15.243 -0.55,24.857c-1.885,-2.852 -4.702,-7.695 -4.707,-12.54c-0.218,-205.055 -0.19,-410.11 -0.129,-615.165c0.001,-2.703 0.823,-5.407 2.883,-9.128c1.879,-0.179 2.136,0.659 2.188,4.63c0.133,17.463 0.471,31.794 0.81,46.124Z" style="fill:#f8ffff;fill-rule:nonzero;"/><path d="M1144.84,1928.37c2.726,8.168 5.217,17.598 5.237,27.033c0.361,167.867 0.422,335.734 0.047,505.521c-3.095,-2.338 -7.912,-6.62 -7.87,-10.852c0.127,-12.831 3.22,-25.641 3.245,-38.464c0.276,-137.276 0.286,-274.554 0.09,-411.83c-0.034,-23.383 -1.389,-46.763 -0.749,-71.408Z" style="fill:#63b5d6;fill-rule:nonzero;"/><path d="M2751.97,1779.83c-1.96,0.229 -3.729,-0.622 -4.637,-1.01c1.183,-1.509 3.275,-3.612 5.366,-3.611c168.032,0.038 336.064,0.241 504.983,2.029c-112.624,1.921 -226.134,2.312 -339.645,2.534c-54.702,0.108 -109.404,-0.103 -166.067,0.058Z" style="fill:#63b5d6;fill-rule:nonzero;"/><path d="M1300.74,1007.35c-40.908,0.277 -81.816,0.618 -122.725,0.807c-28.05,0.13 -28.076,0.035 -28.016,29.01c0.128,62.444 0.357,124.887 0.346,187.331c-0.001,8.256 -1.163,16.511 -3.058,26.21c-1.383,-14.461 -1.316,-30.368 -1.639,-46.268c-1.223,-60.141 -2.228,-120.29 -4.113,-180.411c-0.485,-15.445 4.738,-20.388 20.204,-20.088c44.939,0.872 89.905,0.289 136.939,1.245c2.077,0.967 2.062,2.164 2.062,2.164Z" style="fill:#63b5d6;fill-rule:nonzero;"/><path d="M1639.74,2461.94c2.036,1.213 2.119,2.327 2.172,5.116c-13.037,0.95 -26.042,-0.397 -39.049,-0.406c-146.412,-0.107 -292.825,-0.001 -439.237,-0.002c-4.134,0 -8.267,-0.546 -13.241,-2.493c55.235,-1.998 111.31,-2.595 167.385,-2.629c106.672,-0.065 213.345,0.192 321.97,0.414Z" style="fill:#f8ffff;fill-rule:nonzero;"/><path d="M3250.34,3278.57c2.891,-0.005 4.018,0.098 6.836,0.371c-2.456,1.593 -6.6,4.251 -10.748,4.257c-134.432,0.195 -268.865,0.154 -403.298,0.006c-3.18,-0.004 -6.358,-1.628 -9.478,-4.495c7.594,-1.263 15.13,0.11 22.667,0.112c130.752,0.052 261.504,-0.064 394.021,-0.251Z" style="fill:#97daf6;fill-rule:nonzero;"/><path d="M1302.64,1007.45c-1.892,-0.101 -1.877,-1.298 -2.003,-1.882c92.349,-0.628 184.823,-0.672 278.131,0.937c-90.855,1.451 -182.545,1.248 -276.128,0.945Z" style="fill:#97daf6;fill-rule:nonzero;"/><path d="M3259.45,1887.6c-1.755,-28.582 -1.79,-58.007 -1.444,-90.89c0.046,-5.547 -0.289,-7.635 -0.624,-9.724c0.119,-1.838 0.238,-3.677 0.634,-6.869c1.686,10.449 4.141,22.24 4.28,34.057c0.283,24.187 -0.677,48.389 -2.846,73.426Z" style="fill:#f8ffff;fill-rule:nonzero;"/><path d="M1145.86,1262.07c0.97,5.797 1.781,13.335 1.425,22.125c-1.306,-5.96 -1.445,-13.172 -1.425,-22.125Z" style="fill:#63b5d6;fill-rule:nonzero;"/><path d="M2766.06,1008.34c-1.918,-1.065 -3.478,-3.655 -4.105,-7.466c2.11,1.167 3.286,3.554 4.105,7.466Z" style="fill:#97daf6;fill-rule:nonzero;"/><path d="M1144.75,1252.97c1.727,0.535 2.149,1.907 1.94,5.338c-1.502,-0.128 -2.374,-2.315 -1.94,-5.338Z" style="fill:#63b5d6;fill-rule:nonzero;"/><path d="M1583.05,1013.36c-1.602,0.171 -3.023,-1.172 -4.077,-3.989c1.664,-0.158 2.962,1.159 4.077,3.989Z" style="fill:#97daf6;fill-rule:nonzero;"/><path d="M2762.67,998.652c-1.351,0.626 -2.998,0.133 -4.42,-1.828c1.525,-0.742 2.824,-0.017 4.42,1.828Z" style="fill:#97daf6;fill-rule:nonzero;"/><path d="M1640.13,2491.77c0.706,1.214 -0.042,2.886 -2.008,5.327c-0.628,-1.111 -0.036,-2.989 2.008,-5.327Z" style="fill:#63b5d6;fill-rule:nonzero;"/><path d="M1148.39,1336.47c-1.139,-12.842 -1.477,-27.173 -1.235,-43.376c1.066,12.714 1.55,27.301 1.235,43.376Z" style="fill:#63b5d6;fill-rule:nonzero;"/><path d="M3256.64,1787.77c1.079,1.308 1.414,3.396 1.264,7.025c-0.992,-1.054 -1.5,-3.649 -1.264,-7.025Z" style="fill:#64a9c8;fill-rule:nonzero;"/></svg>